<?xml version="1.0" encoding="utf-8"?>
<svg width="128px" height="128px" viewbox="0 0 128 128" version="1.1" xmlns:xlink="http://www.w3.org/1999/xlink" xmlns="http://www.w3.org/2000/svg">
  <g id="New-group-Copy">
    <path d="M0 0L128 0L128 128L0 128L0 0Z" id="Rectangle" fill="#D3D3D3" fill-rule="evenodd" stroke="none" />
    <g id="GP" transform="translate(16 16)">
      <path d="M46.8258 51.7617Q47.775 51.6094 48.3375 51.5391L48.3375 49.8281L33.7594 49.8281L33.7594 51.5391Q34.5094 51.5859 35.8336 51.7617Q37.1578 51.9375 37.9313 52.2891Q38.775 52.6406 39.0445 53.4023Q39.3141 54.1641 39.3141 55.1484L39.3141 56.9766Q39.3141 57.8438 39.3023 59.0859Q39.2906 60.3281 39.1028 61.5469Q38.3989 62.25 36.6975 62.8828Q34.9961 63.5156 32.9306 63.5156Q30.1614 63.5156 27.9789 62.3194Q25.7965 61.1232 24.3415 59.0358Q22.8862 56.9949 22.1236 54.1921Q21.3609 51.3893 21.3609 48.2227Q21.3609 44.6342 22.1353 41.7257Q22.9096 38.8173 24.3408 36.8701Q25.7958 34.853 27.7667 33.8328Q29.7376 32.8125 32.2484 32.8125Q34.5478 32.8125 36.202 33.6914Q37.8562 34.5703 39.0057 36.0469Q40.1556 37.5234 40.8829 39.3867Q41.6102 41.25 42.1031 43.1719L44.025 43.1719L43.8141 31.5469L41.9391 31.5469L40.9781 33.1406Q39.3844 32.1797 37.2984 31.5Q35.2125 30.8203 32.4 30.8203Q28.8844 30.8203 25.8023 32.122Q22.7203 33.4237 20.4938 35.7689Q18.1969 38.1614 16.943 41.4095Q15.6891 44.6576 15.6891 48.457Q15.6891 52.3975 17.0016 55.587Q18.3141 58.7765 20.5406 61.0049Q22.7438 63.2095 25.6969 64.4055Q28.65 65.6016 31.8375 65.6016Q34.8141 65.6016 37.9078 64.8516Q41.0016 64.1016 44.1188 62.6953Q44.0719 62.0625 44.0367 61.0781Q44.0016 60.0938 44.0016 57.2813L44.0016 54.7031Q44.0016 53.8359 44.2945 53.1914Q44.5875 52.5469 45.2906 52.1953Q45.8766 51.9141 46.8258 51.7617ZM77.4961 44.3555Q78.5156 42.3516 78.5156 39.75Q78.5156 36.0234 75.6211 33.7852Q72.7266 31.5469 68.0859 31.5469L52.8984 31.5469L52.8984 33.2109Q53.5313 33.2578 54.4102 33.3867Q55.2891 33.5156 56.1797 33.8203Q57.0469 34.1484 57.2813 34.8047Q57.5156 35.4609 57.5156 36.2813L57.5156 60.2813Q57.5156 61.1953 57.1992 61.7813Q56.8828 62.3672 56.1797 62.6719Q55.7578 62.8594 54.6914 62.9766Q53.625 63.0938 53.0625 63.1406L53.0625 64.8047L67.3359 64.8047L67.3359 63.1406Q66.4453 63.1172 65.3789 62.9766Q64.3125 62.8359 63.8906 62.6719Q63.0469 62.3438 62.7773 61.7227Q62.5078 61.1016 62.5078 60.2813L62.5078 50.2031L66.2344 50.2031Q68.625 50.2031 70.7578 49.5938Q72.8906 48.9844 74.6719 47.6719Q76.4766 46.3594 77.4961 44.3555ZM72.4453 43.0898Q72.1875 44.2969 71.3906 45.4219Q70.5938 46.5938 69.0117 47.3789Q67.4297 48.1641 64.8984 48.1641L62.5078 48.1641L62.5078 33.4688L65.8125 33.4688Q67.8047 33.4688 69.1406 34.0781Q70.4766 34.6875 71.2969 35.7891Q72.0703 36.8203 72.3867 38.2031Q72.7031 39.5859 72.7031 40.9219Q72.7031 41.8828 72.4453 43.0898Z" />
    </g>
  </g>
</svg>